<?xml version="1.0" standalone="no"?>
<!DOCTYPE svg PUBLIC "-//W3C//DTD SVG 20010904//EN"
 "http://www.w3.org/TR/2001/REC-SVG-20010904/DTD/svg10.dtd">
<svg version="1.0" xmlns="http://www.w3.org/2000/svg"
 width="1080.000000pt" height="1080.000000pt" viewBox="0 0 1080.000000 1080.000000"
 preserveAspectRatio="xMidYMid meet">

<g transform="translate(0.000000,1080.000000) scale(0.100000,-0.100000)"
fill="#000000" stroke="none">
<path d="M5180 10523 c-138 -5 -426 -32 -560 -53 -69 -11 -143 -22 -165 -25
-221 -31 -760 -186 -960 -276 -27 -12 -55 -23 -60 -24 -37 -8 -164 -69 -159
-76 3 -5 -1 -6 -9 -4 -20 8 -319 -143 -311 -157 4 -7 3 -8 -4 -4 -11 7 -94
-35 -212 -107 -36 -22 -84 -51 -108 -64 -23 -14 -39 -29 -36 -35 5 -7 2 -8 -5
-3 -7 4 -22 -1 -34 -12 -12 -10 -42 -32 -67 -48 -81 -52 -298 -217 -251 -190
10 5 12 4 7 -4 -4 -6 -12 -9 -17 -5 -12 7 -170 -126 -163 -137 3 -5 -1 -6 -8
-4 -13 5 -63 -41 -63 -57 0 -4 -6 -13 -14 -20 -10 -10 -12 -10 -7 0 4 6 3 12
-1 12 -13 0 -61 -58 -54 -65 3 -4 2 -6 -4 -5 -25 5 -37 -1 -31 -16 3 -8 2 -12
-4 -9 -15 9 -54 -31 -45 -46 5 -7 4 -10 -2 -6 -14 9 -172 -144 -166 -161 3 -8
-1 -10 -13 -5 -13 5 -16 3 -11 -10 3 -9 1 -19 -5 -23 -7 -5 -8 -2 -3 7 5 8 -5
1 -22 -16 -25 -25 -29 -33 -20 -50 9 -18 8 -18 -6 -7 -14 12 -16 11 -14 -7 1
-12 7 -19 13 -17 7 3 10 -3 7 -15 -4 -16 -8 -17 -20 -8 -8 7 -12 18 -9 26 11
29 -14 10 -60 -44 -27 -32 -57 -67 -67 -78 -54 -60 -98 -125 -91 -137 4 -7 3
-10 -1 -5 -11 9 -45 -21 -45 -40 0 -8 -4 -11 -10 -8 -5 3 -10 -1 -10 -9 0 -9
-3 -16 -7 -16 -5 0 -19 -17 -33 -38 -13 -20 -38 -54 -54 -74 -28 -36 -28 -38
-12 -62 19 -29 20 -36 6 -36 -5 0 -12 11 -16 25 -7 30 -19 24 -19 -10 -1 -42
59 -21 78 28 8 21 37 23 37 2 0 -8 5 -15 10 -15 6 0 10 7 10 15 0 8 -3 15 -7
15 -5 0 -9 21 -10 48 -2 34 0 42 7 27 5 -12 9 -14 9 -6 1 8 -7 23 -16 33 -16
18 -16 18 3 12 10 -4 16 -4 12 1 -8 9 15 35 31 35 6 0 11 -7 11 -15 0 -8 -4
-15 -10 -15 -5 0 -10 -7 -10 -15 0 -25 50 -18 76 10 25 27 44 32 45 13 0 -7 5
-2 10 12 6 14 8 33 5 43 -3 12 3 22 20 29 13 6 24 17 24 25 0 8 11 13 28 13
18 0 37 9 50 25 12 14 26 25 32 25 5 0 10 14 10 30 0 31 16 41 26 15 4 -8 17
-15 30 -15 18 0 24 6 24 21 0 17 3 19 13 11 10 -9 18 -6 31 9 20 24 41 20 42
-7 1 -28 -13 -42 -41 -39 -13 2 -30 -4 -37 -13 -10 -12 -10 -14 0 -8 15 9 15
1 1 -25 -9 -18 -8 -19 8 -11 24 14 100 92 88 92 -5 0 2 12 16 26 l24 27 -30
-19 c-30 -18 -30 -18 -15 1 14 17 13 18 -2 12 -14 -5 -17 0 -16 28 1 40 1 40
33 19 14 -9 25 -13 25 -9 0 4 6 2 14 -4 11 -10 19 -8 35 6 12 9 21 22 21 27 0
5 -12 -1 -26 -15 -14 -13 -25 -19 -24 -14 5 22 -1 36 -12 29 -7 -4 -8 -3 -4 4
4 7 1 12 -7 12 -16 0 -30 27 -21 41 10 18 44 10 44 -10 0 -11 4 -22 10 -26 5
-3 6 -13 3 -23 -6 -15 -5 -15 11 -2 10 8 24 15 30 16 12 2 46 32 73 65 10 12
8 15 -10 16 -15 2 -18 0 -8 -6 9 -6 10 -11 2 -15 -6 -4 -11 -1 -11 6 0 10 -3
9 -9 -2 -6 -8 -8 -17 -5 -21 11 -19 -20 -19 -37 0 -11 12 -24 21 -29 21 -6 0
-10 5 -10 10 0 6 9 10 20 10 11 0 20 -4 20 -10 0 -18 23 -10 53 18 26 24 30
25 40 11 8 -13 19 -7 69 44 57 59 58 61 41 81 -17 20 -17 20 0 7 18 -14 24 -2
7 15 -6 6 -3 10 9 11 11 1 25 -6 33 -15 7 -9 8 -14 4 -10 -11 10 -38 -11 -31
-23 8 -12 55 32 48 45 -3 6 -3 8 2 4 4 -4 35 16 69 44 34 29 63 53 65 55 2 2
1 6 -2 10 -4 3 -17 -3 -30 -15 l-23 -22 1 28 c0 24 4 27 32 27 17 1 29 -3 27
-7 -11 -18 10 -5 73 42 36 28 61 50 55 50 -6 0 -14 -4 -17 -10 -3 -5 -10 -10
-15 -10 -5 0 1 10 13 23 13 13 25 18 29 12 4 -5 17 0 33 15 14 13 41 33 60 44
19 12 65 42 102 67 172 116 310 202 328 204 6 0 9 7 7 14 -1 7 2 10 7 7 12 -8
42 4 36 14 -3 4 2 11 11 14 9 3 12 2 8 -5 -3 -6 12 1 35 15 22 14 44 26 48 26
5 0 24 10 43 23 19 13 70 38 113 56 42 19 77 38 77 42 0 5 3 8 8 7 15 -3 62
14 73 28 6 8 15 11 20 8 5 -3 9 0 9 6 0 6 5 8 10 5 6 -4 16 -3 23 3 7 5 41 19
77 32 36 13 69 27 75 32 5 4 15 8 23 8 8 0 28 6 45 14 35 16 245 82 375 119
45 12 80 25 77 29 -3 3 7 3 22 1 23 -4 25 -2 13 7 -12 9 -11 10 6 5 12 -3 59
4 105 15 46 11 99 22 117 24 18 2 39 10 47 16 8 7 22 9 32 6 24 -9 101 4 118
20 9 9 15 10 17 3 3 -9 22 -8 73 0 139 23 395 40 625 41 216 1 484 -12 554
-26 22 -5 27 -3 20 7 -6 11 -5 12 7 2 8 -6 37 -14 64 -17 28 -3 74 -11 103
-17 29 -6 60 -8 69 -4 9 3 19 2 22 -3 7 -10 248 -58 279 -55 12 1 20 -1 18 -6
-7 -10 221 -64 235 -55 7 4 9 3 6 -3 -7 -11 140 -59 150 -49 4 3 14 -1 23 -9
9 -8 27 -16 41 -17 13 -2 26 -5 29 -8 12 -13 94 -39 103 -33 6 4 7 1 2 -7 -6
-9 -2 -10 15 -5 17 5 21 4 15 -6 -6 -9 -4 -11 8 -6 9 3 17 1 19 -4 2 -6 15
-12 30 -12 14 -1 24 -5 22 -9 -2 -4 6 -9 18 -13 13 -3 32 -10 43 -15 11 -5 42
-18 68 -30 26 -11 53 -18 59 -14 6 4 8 3 5 -3 -7 -12 130 -76 144 -67 5 3 8 0
7 -8 -2 -8 4 -12 16 -10 10 2 15 -1 12 -6 -3 -6 11 -17 32 -25 21 -9 65 -31
98 -50 32 -19 63 -33 68 -30 4 3 2 10 -5 15 -11 8 -11 9 1 5 8 -2 14 -11 12
-19 -2 -17 73 -62 88 -53 6 4 9 2 8 -3 -3 -8 64 -62 77 -62 2 0 32 -19 66 -41
59 -40 63 -41 76 -23 7 10 13 13 13 7 0 -7 -5 -15 -10 -18 -16 -10 0 -27 20
-22 12 3 17 0 14 -8 -3 -7 16 -26 43 -44 26 -17 70 -47 96 -66 26 -20 53 -33
59 -29 6 4 8 3 5 -3 -6 -9 74 -83 90 -83 4 0 -1 7 -11 15 -11 8 -15 15 -9 15
13 0 35 -25 28 -32 -3 -2 45 -47 107 -98 61 -52 176 -160 256 -240 80 -80 149
-144 154 -142 5 1 7 -2 3 -8 -3 -5 10 -27 29 -47 150 -160 366 -444 493 -650
411 -667 633 -1309 720 -2083 22 -195 25 -750 5 -940 -57 -553 -181 -1028
-392 -1505 -630 -1427 -1932 -2476 -3450 -2779 -364 -72 -565 -91 -975 -90
-377 0 -554 15 -854 70 -730 132 -1447 445 -2024 881 -45 34 -85 59 -90 56 -4
-2 -6 0 -5 5 2 5 -26 33 -62 62 -241 193 -541 493 -696 695 -14 19 -31 32 -37
28 -5 -3 -7 -1 -4 4 4 6 -3 21 -16 35 -12 13 -29 33 -37 45 -8 11 -39 55 -69
96 -30 42 -59 73 -64 70 -6 -3 -7 -1 -3 5 8 13 -51 98 -66 94 -5 -1 -7 2 -3 8
6 10 -88 168 -109 182 -6 4 -7 8 -3 8 5 0 0 12 -11 27 -11 16 -34 56 -51 91
-20 39 -36 60 -43 56 -6 -4 -8 -3 -4 4 8 13 -109 244 -119 234 -5 -4 -5 -2 -1
5 7 12 -50 143 -62 143 -4 0 -8 10 -8 23 -2 20 -37 121 -69 192 -7 17 -28 74
-46 127 -22 62 -37 92 -42 85 -6 -8 -7 -6 -3 6 8 25 -4 78 -17 70 -6 -4 -8 0
-4 10 3 9 -4 51 -17 94 -13 43 -36 132 -50 198 -15 66 -30 127 -33 135 -4 8
-8 29 -9 45 -9 75 -42 247 -43 220 -2 -39 -11 -75 -21 -75 -4 0 -10 35 -14 77
-4 42 -11 84 -16 92 -4 9 -11 42 -15 74 -7 54 -6 57 14 57 19 0 21 -5 21 -72
0 -40 3 -91 7 -113 6 -40 7 -40 14 -11 8 27 -7 234 -19 266 -3 8 -5 42 -5 75
l1 60 -7 -55 c-7 -53 -8 -53 -11 -15 -1 22 -2 43 -1 48 0 4 -4 7 -9 7 -6 0 -8
-17 -5 -42 4 -24 8 -59 10 -78 l4 -35 -14 30 c-8 17 -15 41 -16 55 -1 14 -5 3
-9 -25 l-7 -50 3 55 c1 30 6 76 10 101 4 28 2 49 -4 53 -6 4 -8 -8 -5 -34 l6
-40 -47 0 -46 0 0 40 c0 40 0 40 -39 40 -47 0 -48 3 -47 147 1 56 -2 99 -6 95
-14 -14 -22 -210 -9 -225 9 -11 8 -34 -5 -98 -15 -72 -16 -97 -6 -179 7 -52
15 -122 18 -155 5 -49 25 -178 61 -387 3 -16 10 -28 15 -28 6 0 7 -11 4 -25
-4 -15 -2 -25 4 -25 6 0 8 -4 5 -10 -9 -14 6 -81 16 -74 5 3 6 -1 3 -9 -3 -8
2 -41 11 -73 9 -33 17 -66 19 -74 12 -47 29 -106 38 -129 6 -14 12 -28 12 -31
1 -3 10 -35 21 -72 12 -45 22 -64 28 -55 5 7 6 4 2 -10 -3 -12 2 -39 11 -60
10 -21 18 -40 18 -43 1 -3 6 -18 13 -35 6 -16 21 -58 33 -93 16 -45 26 -60 32
-50 6 9 7 6 3 -8 -6 -24 13 -76 26 -68 5 3 6 -1 4 -8 -3 -8 8 -40 23 -73 16
-33 32 -70 36 -83 4 -12 12 -19 18 -16 6 4 8 2 5 -4 -10 -15 3 -43 16 -35 6 3
7 1 3 -5 -18 -30 276 -536 442 -761 32 -44 189 -246 217 -280 106 -130 393
-426 525 -541 47 -41 87 -77 90 -80 12 -13 164 -134 264 -210 102 -77 389
-270 401 -270 3 0 30 -15 58 -34 166 -105 458 -248 727 -354 888 -351 1909
-441 2855 -251 325 65 747 195 995 306 327 147 523 252 785 421 108 70 297
203 315 222 3 3 34 27 70 55 292 223 666 607 918 941 1151 1533 1343 3598 494
5312 -63 127 -152 294 -161 302 -3 3 -17 25 -30 50 -32 60 -181 286 -250 380
-107 146 -286 366 -348 428 -35 34 -63 66 -63 70 0 15 -217 222 -225 215 -4
-5 -5 -3 -1 4 4 7 -4 19 -21 30 -15 10 -36 27 -48 38 -80 76 -128 114 -137
109 -6 -4 -8 -3 -5 3 9 14 -230 206 -245 197 -7 -4 -8 -3 -4 4 8 14 -50 46
-66 36 -6 -4 -8 -3 -4 4 3 6 -1 18 -10 27 -22 21 -162 116 -170 114 -4 0 -10
4 -13 10 -13 20 -204 130 -215 124 -6 -3 -8 -3 -4 2 11 12 -5 21 -225 134
-143 74 -204 100 -220 96 -15 -4 -18 -3 -9 3 17 12 -61 48 -80 37 -7 -5 -10
-5 -6 0 14 15 -213 111 -235 99 -7 -4 -9 -3 -5 1 16 18 -547 195 -571 180 -5
-3 -11 -1 -13 4 -7 18 -380 87 -623 115 -138 16 -522 37 -615 34 -30 -1 -93
-3 -140 -5z m1007 -309 c-3 -3 -12 -4 -19 -1 -8 3 -5 6 6 6 11 1 17 -2 13 -5z
m86 -1 c-7 -2 -19 -2 -25 0 -7 3 -2 5 12 5 14 0 19 -2 13 -5z m-2098 -81 c-3
-3 -11 0 -18 7 -9 10 -8 11 6 5 10 -3 15 -9 12 -12z m2405 -6 c0 -2 -7 -7 -16
-10 -8 -3 -12 -2 -9 4 6 10 25 14 25 6z m217 -72 c-3 -3 -12 -4 -19 -1 -8 3
-5 6 6 6 11 1 17 -2 13 -5z m728 -44 c3 -6 -1 -7 -9 -4 -18 7 -21 14 -7 14 6
0 13 -4 16 -10z m170 -68 c-3 -3 -11 0 -18 7 -9 10 -8 11 6 5 10 -3 15 -9 12
-12z m-425 -47 c-7 -8 -18 -15 -24 -15 -6 0 -2 7 8 15 25 19 32 19 16 0z m77
-1 c-3 -3 -12 -4 -19 -1 -8 3 -5 6 6 6 11 1 17 -2 13 -5z m-3932 -24 c-3 -5
-11 -10 -16 -10 -6 0 -7 5 -4 10 3 6 11 10 16 10 6 0 7 -4 4 -10z m3882 4 c-3
-3 -12 -4 -19 -1 -8 3 -5 6 6 6 11 1 17 -2 13 -5z m63 -4 c0 -5 -8 -10 -17
-10 -15 0 -16 2 -3 10 19 12 20 12 20 0z m90 -60 c0 -5 -2 -10 -4 -10 -3 0 -8
5 -11 10 -3 6 -1 10 4 10 6 0 11 -4 11 -10z m-4655 -31 c-4 -5 -12 -9 -18 -8
-9 0 -8 2 1 6 6 2 9 10 6 15 -4 7 -2 8 5 4 6 -4 9 -12 6 -17z m4845 -34 c0 -2
-13 -8 -29 -13 -25 -9 -29 -8 -26 6 2 10 4 18 4 18 2 2 51 -8 51 -11z m30 -50
c11 -13 10 -14 -4 -9 -9 3 -16 10 -16 15 0 13 6 11 20 -6z m-4673 -42 c0 -8
-6 -9 -19 -2 -10 5 -18 11 -18 12 0 2 8 3 18 3 10 0 19 -6 19 -13z m5218 -43
c3 -6 -1 -7 -9 -4 -18 7 -21 14 -7 14 6 0 13 -4 16 -10z m-5365 -14 c0 -2 -7
-7 -16 -10 -8 -3 -12 -2 -9 4 6 10 25 14 25 6z m40 -1 c0 -2 -10 -9 -22 -15
-22 -11 -22 -10 -4 4 21 17 26 19 26 11z m-126 -84 c4 -5 -3 -7 -14 -4 -23 6
-26 13 -6 13 8 0 17 -4 20 -9z m-123 -84 c-10 -9 -11 -8 -5 6 3 10 9 15 12 12
3 -3 0 -11 -7 -18z m5515 -23 c1 -9 0 -13 -4 -10 -3 4 -7 14 -8 22 -1 9 0 13
4 10 3 -4 7 -14 8 -22z m-5551 6 c-3 -5 -16 -15 -28 -21 -21 -10 -21 -9 2 10
25 23 36 27 26 11z m-435 -33 c0 -2 -12 -14 -27 -28 l-28 -24 24 28 c23 25 31
32 31 24z m334 -26 c3 -5 -2 -15 -11 -22 -12 -10 -14 -10 -9 -1 5 8 1 12 -11
13 -16 0 -16 1 2 9 11 5 21 9 22 9 1 1 4 -3 7 -8z m-64 -13 c-6 -7 -17 -22
-25 -33 -14 -20 -14 -20 -15 2 0 12 8 27 18 32 24 14 35 13 22 -1z m-285 -18
c-3 -5 -12 -10 -18 -10 -7 0 -6 4 3 10 19 12 23 12 15 0z m213 -61 c-13 -10
-17 -18 -9 -20 8 -3 2 -14 -15 -29 -15 -14 -24 -19 -20 -12 4 6 2 12 -4 12 -6
0 -9 4 -5 10 3 5 12 7 20 3 8 -3 15 0 15 6 0 6 -6 11 -12 11 -9 0 -8 4 2 10
12 8 13 12 2 19 -9 5 -4 8 17 7 31 -1 31 -1 9 -17z m-168 -69 c0 -5 -9 -10
-21 -10 -11 0 -17 5 -14 10 3 6 13 10 21 10 8 0 14 -4 14 -10z m20 -71 c12 -8
10 -9 -7 -4 -18 5 -22 3 -17 -9 5 -12 2 -15 -10 -10 -9 3 -16 2 -16 -4 0 -6 6
-13 13 -15 9 -4 9 -6 -1 -6 -19 -1 -26 27 -12 44 15 18 29 19 50 4z m-185 -89
c3 -5 1 -10 -4 -10 -6 0 -11 5 -11 10 0 6 2 10 4 10 3 0 8 -4 11 -10z m-30
-61 c6 -24 9 -28 21 -18 25 21 15 -7 -12 -32 -24 -22 -26 -22 -16 -3 13 24 -1
44 -30 44 -21 0 -25 36 -5 43 21 7 36 -4 42 -34z m85 32 c0 -5 -6 -14 -14 -20
-16 -13 -32 2 -21 19 8 12 35 13 35 1z m-150 -71 c0 -5 -4 -10 -10 -10 -5 0
-10 5 -10 10 0 6 5 10 10 10 6 0 10 -4 10 -10z m-392 -167 c-10 -2 -18 -10
-18 -18 0 -20 -27 -39 -36 -24 -4 8 -3 9 4 5 8 -4 16 3 22 18 6 16 17 26 27
25 17 -1 17 -2 1 -6z m12 -23 c0 -5 -5 -10 -11 -10 -5 0 -7 5 -4 10 3 6 8 10
11 10 2 0 4 -4 4 -10z m100 -30 c0 -5 -4 -10 -10 -10 -5 0 -10 5 -10 10 0 6 5
10 10 10 6 0 10 -4 10 -10z m-159 -43 c-13 -12 -20 -15 -15 -7 12 22 28 39 33
34 3 -3 -6 -15 -18 -27z m239 -41 c0 -2 -8 -10 -18 -19 -16 -15 -18 -15 -18 1
0 10 8 19 18 19 10 1 18 0 18 -1z m-307 -47 c4 9 5 8 3 0 -1 -7 -13 -13 -25
-14 -13 -1 -28 -10 -33 -20 -8 -13 -12 -14 -18 -5 -5 7 -3 21 3 31 9 14 14 16
26 6 12 -10 13 -8 7 13 l-7 25 19 -24 c13 -16 21 -20 25 -12z m-92 -84 c11 6
11 5 2 -5 -12 -14 -33 -6 -33 13 0 8 3 7 9 -2 5 -8 14 -10 22 -6z m-94 -104
c1 -11 -8 -27 -19 -38 -20 -18 -21 -18 -10 2 6 11 13 28 16 38 7 22 11 22 13
-2z m-47 -102 c0 -6 -4 -7 -10 -4 -5 3 -10 11 -10 16 0 6 5 7 10 4 6 -3 10
-11 10 -16z m-893 -2991 c-2 -13 -4 -3 -4 22 0 25 2 35 4 23 2 -13 2 -33 0
-45z m8 -258 c-3 -6 1 -7 9 -4 13 5 16 -2 16 -35 0 -30 -4 -41 -15 -41 -8 0
-15 -8 -16 -17 0 -15 -2 -15 -9 2 -10 24 -13 89 -3 98 10 11 25 8 18 -3z m195
-70 c0 -5 -5 -10 -11 -10 -5 0 -7 5 -4 10 3 6 8 10 11 10 2 0 4 -4 4 -10z
m-193 -82 c-3 -8 -6 -5 -6 6 -1 11 2 17 5 13 3 -3 4 -12 1 -19z m179 -157 c-2
-15 -6 -33 -10 -40 -11 -18 -26 -13 -26 9 0 11 5 20 10 20 6 0 10 9 10 20 0
11 4 20 10 20 5 0 8 -13 6 -29z m-149 -113 c-3 -8 -6 -5 -6 6 -1 11 2 17 5 13
3 -3 4 -12 1 -19z m243 -23 c4 3 7 -5 7 -18 -1 -12 2 -33 6 -47 5 -18 3 -16
-8 6 -7 17 -16 42 -18 55 -2 13 -2 18 0 11 3 -7 8 -10 13 -7z m-203 -22 c-3
-10 -5 -4 -5 12 0 17 2 24 5 18 2 -7 2 -21 0 -30z m33 -34 c0 -6 -7 -17 -15
-25 -13 -14 -15 -13 -15 9 0 13 3 27 6 30 9 8 24 -1 24 -14z m-43 -56 c-3 -10
-5 -4 -5 12 0 17 2 24 5 18 2 -7 2 -21 0 -30z m235 8 c4 11 2 -62 -2 -86 -1
-8 -27 75 -30 94 0 2 6 -2 14 -8 11 -9 15 -9 18 0z m-76 -65 c3 -19 0 -26 -11
-26 -15 0 -22 40 -8 53 9 10 13 4 19 -27z m48 9 c-4 -8 -8 -15 -10 -15 -2 0
-4 7 -4 15 0 8 4 15 10 15 5 0 7 -7 4 -15z m-184 -50 c0 -5 -5 -3 -10 5 -5 8
-10 20 -10 25 0 6 5 3 10 -5 5 -8 10 -19 10 -25z m270 -189 c-4 -19 -5 -38 -1
-42 3 -4 1 -5 -4 -1 -6 3 -9 24 -7 46 2 23 8 39 12 36 4 -3 4 -20 0 -39z m228
-691 c-3 -3 -9 2 -12 12 -6 14 -5 15 5 6 7 -7 10 -15 7 -18z m43 -558 c-10 -9
-11 -8 -5 6 3 10 9 15 12 12 3 -3 0 -11 -7 -18z"/>
<path d="M307 5003 c-4 -3 -7 -16 -6 -27 0 -19 1 -19 10 3 10 24 8 36 -4 24z"/>
<path d="M2250 9170 c0 -5 4 -10 9 -10 6 0 13 5 16 10 3 6 -1 10 -9 10 -9 0
-16 -4 -16 -10z"/>
<path d="M1641 8583 c-1 -12 -4 -30 -8 -40 -4 -11 3 -7 16 10 13 15 20 33 18
40 -3 6 -6 3 -7 -8 l-1 -20 -9 20 c-8 19 -9 19 -9 -2z"/>
<path d="M1653 8534 c-18 -24 -21 -25 -35 -10 -14 14 -16 13 -15 -7 0 -12 -2
-26 -4 -32 -2 -5 0 -10 6 -10 5 0 9 6 7 13 -2 6 3 12 11 12 7 0 26 14 42 30
16 17 24 30 18 30 -6 0 -20 -12 -30 -26z"/>
<path d="M1515 8529 c-21 -6 -34 -18 -42 -39 -8 -20 -8 -28 -1 -24 7 5 9 -1 6
-14 -4 -12 -2 -24 3 -27 4 -3 6 -12 2 -20 -3 -8 0 -15 5 -15 18 0 23 17 12 46
-10 24 -8 30 11 44 11 9 34 16 50 15 22 -1 29 3 29 17 0 10 -4 18 -9 18 -5 0
-15 2 -23 4 -7 2 -27 0 -43 -5z"/>
<path d="M1526 8475 c-9 -26 -7 -32 5 -12 6 10 9 21 6 23 -2 3 -7 -2 -11 -11z"/>
<path d="M1563 8430 c-12 -10 -24 -29 -28 -40 -4 -11 -11 -18 -16 -15 -10 7
-12 -8 -2 -18 6 -6 43 38 64 76 13 22 8 22 -18 -3z"/>
<path d="M1466 8364 c-10 -25 1 -29 14 -5 6 12 7 21 1 21 -5 0 -12 -7 -15 -16z"/>
<path d="M1442 8340 c0 -14 2 -19 5 -12 2 6 2 18 0 25 -3 6 -5 1 -5 -13z"/>
<path d="M1497 8343 c-4 -3 -7 -11 -7 -17 0 -6 5 -5 12 2 6 6 9 14 7 17 -3 3
-9 2 -12 -2z"/>
<path d="M1473 8305 c0 -8 4 -12 9 -9 5 3 6 10 3 15 -9 13 -12 11 -12 -6z"/>
<path d="M1440 8281 c0 -6 4 -13 10 -16 6 -3 7 1 4 9 -7 18 -14 21 -14 7z"/>
<path d="M1106 8230 c-14 -22 -21 -40 -16 -40 6 0 8 -4 5 -10 -3 -5 -1 -10 4
-10 6 0 11 -7 11 -17 0 -23 6 -14 14 22 4 19 3 25 -2 16 -6 -8 -12 -9 -16 -3
-3 6 0 17 8 24 13 14 31 58 23 58 -2 0 -16 -18 -31 -40z"/>
<path d="M1224 8259 c-4 -7 -3 -9 4 -5 5 3 13 0 15 -6 4 -9 6 -10 6 -1 1 17
-16 25 -25 12z"/>
<path d="M1374 8229 c-5 -8 -3 -9 6 -4 9 6 12 4 8 -7 -4 -8 -3 -21 2 -27 5 -9
8 -4 8 13 0 30 -13 42 -24 25z"/>
<path d="M1410 8224 c0 -8 5 -12 10 -9 6 4 8 11 5 16 -9 14 -15 11 -15 -7z"/>
<path d="M1362 8170 c-6 -10 -8 -21 -3 -24 13 -8 31 18 23 31 -6 9 -11 6 -20
-7z"/>
<path d="M1058 8156 c-7 -13 -21 -38 -31 -55 -14 -25 -16 -36 -7 -46 8 -10 9
-19 1 -32 -10 -17 -10 -16 -11 4 0 38 -16 34 -38 -11 -12 -24 -22 -48 -22 -54
0 -6 -4 -12 -8 -14 -12 -5 -62 -98 -52 -98 4 0 15 16 25 36 9 20 19 33 23 30
3 -3 -1 -17 -8 -31 -10 -20 -11 -28 -2 -37 12 -12 17 14 14 70 0 12 3 20 9 17
5 -4 9 2 9 13 0 28 34 62 56 58 15 -3 20 1 19 19 0 13 -3 27 -7 31 -11 11 -10
26 1 19 5 -3 12 -1 16 4 3 6 12 8 20 5 11 -5 12 -11 4 -26 -9 -16 -8 -19 3
-16 7 3 13 10 13 16 0 6 9 18 20 26 11 9 15 16 10 16 -6 0 -16 -5 -23 -12 -9
-9 -12 -8 -12 5 0 9 5 17 10 17 6 0 10 11 10 25 0 14 -4 25 -10 25 -5 0 -7 -6
-4 -13 3 -8 -2 -20 -11 -27 -18 -15 -18 -14 -6 28 11 38 7 41 -11 8z m-72
-144 c-17 -16 -18 -16 -5 5 7 12 15 20 18 17 3 -2 -3 -12 -13 -22z"/>
<path d="M1318 8123 c18 -7 15 -23 -10 -43 -19 -15 -21 -21 -10 -32 11 -11 12
-10 6 6 -5 13 -4 17 4 12 14 -8 36 30 28 50 -3 8 -11 14 -18 13 -10 0 -10 -2
0 -6z"/>
<path d="M1256 7988 c3 -5 10 -6 15 -3 13 9 11 12 -6 12 -8 0 -12 -4 -9 -9z"/>
<path d="M1230 7959 c0 -15 18 -19 23 -6 3 8 -1 14 -9 14 -8 0 -14 -4 -14 -8z"/>
<path d="M1215 7919 c-4 -6 -5 -12 -2 -15 2 -3 7 2 10 11 7 17 1 20 -8 4z"/>
<path d="M1175 7860 c-4 -12 -5 -24 -2 -27 3 -2 8 5 12 17 4 12 5 24 2 27 -3
2 -8 -5 -12 -17z"/>
<path d="M857 7811 c-10 -17 -13 -32 -8 -35 5 -4 11 2 14 11 3 14 4 14 3 -2
-1 -12 -7 -19 -16 -18 -24 4 -164 -293 -150 -315 9 -14 10 -12 4 7 -4 17 -3
21 6 16 8 -5 11 -4 7 1 -3 6 7 36 22 68 29 59 40 58 42 -2 1 -20 3 -17 9 13 8
42 5 59 -11 50 -5 -4 -9 -2 -9 2 0 15 25 63 33 63 4 0 7 9 7 20 0 11 4 20 10
20 5 0 7 -8 3 -17 -5 -15 -3 -16 7 -6 7 7 13 26 13 42 0 19 5 27 13 24 12 -5
19 10 28 60 6 35 -5 35 -27 -2z"/>
<path d="M1134 7828 c-4 -7 -4 -10 1 -6 4 4 15 2 24 -5 14 -11 14 -10 2 6 -16
20 -18 21 -27 5z"/>
<path d="M945 7810 c3 -5 8 -10 11 -10 2 0 4 5 4 10 0 6 -5 10 -11 10 -5 0 -7
-4 -4 -10z"/>
<path d="M1135 7799 c-4 -6 -4 -13 -1 -16 3 -4 6 -1 6 6 0 7 5 9 12 5 7 -4 8
-3 4 4 -9 15 -13 15 -21 1z"/>
<path d="M1045 7600 c-4 -6 -11 -8 -16 -5 -5 3 -6 -1 -3 -10 4 -9 7 -15 8 -13
1 2 8 11 15 21 7 9 11 17 8 17 -3 0 -9 -5 -12 -10z"/>
<path d="M751 7534 c0 -11 3 -14 6 -6 3 7 2 16 -1 19 -3 4 -6 -2 -5 -13z"/>
<path d="M986 7497 c3 -10 9 -15 12 -12 3 3 0 11 -7 18 -10 9 -11 8 -5 -6z"/>
<path d="M680 7429 c0 -13 5 -31 10 -39 7 -11 8 -5 4 20 -8 43 -14 51 -14 19z"/>
<path d="M658 7392 c-4 -12 -2 -25 4 -28 15 -10 19 1 10 26 l-9 24 -5 -22z"/>
<path d="M934 7385 c-3 -8 -4 -20 -2 -27 3 -7 7 -1 10 15 6 29 1 36 -8 12z"/>
<path d="M910 7355 c0 -5 5 -17 10 -25 5 -8 10 -10 10 -5 0 6 -5 17 -10 25 -5
8 -10 11 -10 5z"/>
<path d="M900 7320 c6 -11 13 -20 16 -20 2 0 0 9 -6 20 -6 11 -13 20 -16 20
-2 0 0 -9 6 -20z"/>
<path d="M621 7304 c-6 -15 -9 -35 -5 -46 4 -15 3 -18 -6 -13 -9 6 -9 2 0 -16
19 -36 19 -35 15 15 -3 26 -1 45 3 42 4 -2 8 7 8 20 2 30 0 30 -15 -2z"/>
<path d="M4960 6833 l-445 -448 448 -3 c247 -1 647 -1 890 0 l442 3 -445 448
-446 447 -444 -447z"/>
<path d="M586 7200 c-3 -18 -4 -35 -1 -38 3 -3 5 2 5 11 0 8 5 17 12 19 8 3 8
9 1 22 -9 16 -11 14 -17 -14z"/>
<path d="M596 7145 c-9 -26 -7 -32 5 -12 6 10 9 21 6 23 -2 3 -7 -2 -11 -11z"/>
<path d="M535 7040 c-4 -12 -5 -24 -2 -27 3 -2 8 5 12 17 4 12 5 24 2 27 -3 2
-8 -5 -12 -17z"/>
<path d="M751 6994 c0 -11 3 -14 6 -6 3 7 2 16 -1 19 -3 4 -6 -2 -5 -13z"/>
<path d="M781 6992 c-17 -31 -13 -40 5 -14 9 13 14 26 11 29 -3 2 -10 -4 -16
-15z"/>
<path d="M510 6990 c0 -5 5 -10 10 -10 6 0 10 5 10 10 0 6 -4 10 -10 10 -5 0
-10 -4 -10 -10z"/>
<path d="M535 6981 c-4 -13 -12 -18 -23 -15 -11 4 -13 3 -6 -3 7 -4 14 -17 17
-28 4 -17 5 -16 7 5 l2 25 8 -25 c6 -20 7 -17 7 18 -1 47 -3 50 -12 23z"/>
<path d="M487 6908 c-4 -12 -4 -24 -2 -27 3 -2 5 1 5 7 0 6 7 9 15 6 17 -7 18
-3 9 20 -9 23 -21 20 -27 -6z"/>
<path d="M756 6917 c3 -10 9 -15 12 -12 3 3 0 11 -7 18 -10 9 -11 8 -5 -6z"/>
<path d="M461 6830 c-7 -22 -7 -30 2 -30 7 0 13 14 14 30 3 38 -2 38 -16 0z"/>
<path d="M440 6757 c0 -9 5 -17 10 -17 6 0 11 -15 11 -32 2 -31 2 -31 6 -6 2
15 -3 38 -11 50 -13 18 -16 19 -16 5z"/>
<path d="M433 6698 c-2 -27 0 -29 7 -13 11 26 12 45 2 45 -4 0 -8 -15 -9 -32z"/>
<path d="M417 6635 c3 -8 9 -12 14 -9 12 7 11 11 -5 17 -10 4 -13 1 -9 -8z"/>
<path d="M451 6614 c0 -11 3 -14 6 -6 3 7 2 16 -1 19 -3 4 -6 -2 -5 -13z"/>
<path d="M671 6594 c0 -11 3 -14 6 -6 3 7 2 16 -1 19 -3 4 -6 -2 -5 -13z"/>
<path d="M420 6586 c0 -9 7 -19 15 -23 25 -9 27 2 5 22 -18 17 -20 17 -20 1z"/>
<path d="M395 6560 c3 -5 0 -18 -6 -28 -9 -14 -9 -23 0 -38 11 -17 11 -17 6 6
-6 23 -5 24 9 7 15 -19 15 -17 7 56 -1 4 -6 7 -12 7 -5 0 -8 -4 -4 -10z"/>
<path d="M661 6554 c0 -11 3 -14 6 -6 3 7 2 16 -1 19 -3 4 -6 -2 -5 -13z"/>
<path d="M651 6514 c0 -11 3 -14 6 -6 3 7 2 16 -1 19 -3 4 -6 -2 -5 -13z"/>
<path d="M4236 6468 c3 -5 10 -6 15 -3 13 9 11 12 -6 12 -8 0 -12 -4 -9 -9z"/>
<path d="M361 6414 c0 -11 3 -14 6 -6 3 7 2 16 -1 19 -3 4 -6 -2 -5 -13z"/>
<path d="M383 6395 c0 -22 2 -30 4 -17 2 12 2 30 0 40 -3 9 -5 -1 -4 -23z"/>
<path d="M613 6357 c-1 -38 0 -40 9 -15 5 16 6 34 1 43 -6 10 -9 2 -10 -28z"/>
<path d="M362 6350 c0 -19 2 -27 5 -17 2 9 2 25 0 35 -3 9 -5 1 -5 -18z"/>
<path d="M591 6354 c0 -11 3 -14 6 -6 3 7 2 16 -1 19 -3 4 -6 -2 -5 -13z"/>
<path d="M340 6305 c0 -15 4 -24 10 -20 6 3 10 -1 10 -9 0 -20 -17 -29 -24
-14 -3 7 -4 0 -1 -15 3 -16 1 -35 -5 -42 -7 -8 -10 -22 -7 -32 4 -15 5 -14 6
3 0 12 7 24 15 27 22 9 31 94 12 113 -15 14 -16 13 -16 -11z"/>
<path d="M565 6297 c-4 -15 -5 -31 -1 -34 3 -4 6 5 7 18 0 18 4 15 14 -16 7
-22 13 -31 14 -20 0 11 -6 34 -13 50 l-13 30 -8 -28z"/>
<path d="M381 6294 c0 -11 3 -14 6 -6 3 7 2 16 -1 19 -3 4 -6 -2 -5 -13z"/>
<path d="M4380 6253 c0 -4 230 -238 512 -520 l512 -512 498 502 c274 276 506
510 515 520 15 16 -33 17 -1010 17 -565 0 -1027 -3 -1027 -7z"/>
<path d="M582 6190 c0 -14 2 -19 5 -12 2 6 2 18 0 25 -3 6 -5 1 -5 -13z"/>
<path d="M573 6125 c0 -22 2 -30 4 -17 2 12 2 30 0 40 -3 9 -5 -1 -4 -23z"/>
<path d="M560 6075 c0 -5 5 -17 10 -25 5 -8 10 -10 10 -5 0 6 -5 17 -10 25 -5
8 -10 11 -10 5z"/>
<path d="M306 6053 c-6 -14 -5 -15 5 -6 7 7 10 15 7 18 -3 3 -9 -2 -12 -12z"/>
<path d="M297 5982 c-3 -29 -3 -67 0 -84 4 -23 3 -29 -6 -24 -9 6 -10 -9 -6
-60 3 -37 8 -70 11 -73 4 -4 4 12 1 34 -3 22 2 69 11 106 12 50 13 76 6 110
l-10 44 -7 -53z m10 -59 c-3 -10 -5 -4 -5 12 0 17 2 24 5 18 2 -7 2 -21 0 -30z"/>
<path d="M492 5820 c0 -14 2 -19 5 -12 2 6 2 18 0 25 -3 6 -5 1 -5 -13z"/>
<path d="M536 5798 c-4 -10 -5 -25 -2 -34 4 -9 1 -23 -5 -30 -6 -7 -9 -19 -7
-26 9 -25 29 32 26 70 -3 28 -6 33 -12 20z"/>
<path d="M481 5774 c0 -11 3 -14 6 -6 3 7 2 16 -1 19 -3 4 -6 -2 -5 -13z"/>
<path d="M507 5771 c-4 -17 -3 -21 5 -13 5 5 8 16 6 23 -3 8 -7 3 -11 -10z"/>
<path d="M272 5605 c-2 -88 -3 -169 -4 -180 -3 -68 5 -335 10 -330 3 3 7 135
9 293 2 158 3 292 3 297 1 6 -3 26 -7 45 -6 25 -10 -12 -11 -125z"/>
<path d="M306 5653 c-4 -21 -2 -51 3 -68 8 -25 9 -20 10 38 1 75 -4 86 -13 30z"/>
<path d="M502 5635 c-6 -27 -9 -51 -7 -53 6 -6 26 79 22 91 -2 7 -9 -10 -15
-38z"/>
<path d="M532 5620 c0 -14 2 -19 5 -12 2 6 2 18 0 25 -3 6 -5 1 -5 -13z"/>
<path d="M521 5494 c0 -11 3 -14 6 -6 3 7 2 16 -1 19 -3 4 -6 -2 -5 -13z"/>
<path d="M503 5345 c-1 -33 2 -69 6 -80 8 -19 8 -19 19 2 7 12 12 36 12 54 0
41 -11 32 -12 -10 -2 -50 -16 -22 -21 39 l-3 55 -1 -60z"/>
<path d="M522 5380 c0 -14 2 -19 5 -12 2 6 2 18 0 25 -3 6 -5 1 -5 -13z"/>
<path d="M482 5340 c0 -14 2 -19 5 -12 2 6 2 18 0 25 -3 6 -5 1 -5 -13z"/>
<path d="M501 5214 c0 -11 3 -14 6 -6 3 7 2 16 -1 19 -3 4 -6 -2 -5 -13z"/>
<path d="M526 5205 c-3 -9 -5 -29 -5 -43 1 -20 3 -17 9 13 8 43 7 57 -4 30z"/>
<path d="M5679 5019 c-206 -21 -388 -149 -475 -334 -48 -101 -64 -174 -64
-290 0 -158 38 -276 125 -395 170 -232 530 -307 802 -169 65 33 183 132 183
153 0 6 -42 54 -94 105 l-94 94 -49 -42 c-93 -83 -184 -111 -286 -91 -78 15
-122 38 -168 87 -129 135 -128 396 3 520 64 61 112 78 218 78 112 0 163 -20
232 -90 l43 -44 98 95 c53 53 97 100 97 106 0 15 -77 88 -131 125 -112 75
-274 110 -440 92z"/>
<path d="M2464 4973 c-6 -16 -75 -181 -154 -368 -78 -187 -157 -376 -175 -420
-18 -44 -63 -151 -99 -238 -36 -87 -66 -160 -66 -163 0 -2 73 -4 163 -4 l162
0 45 120 44 120 246 0 245 0 45 -120 45 -120 167 0 168 0 -16 38 c-35 83 -163
389 -323 772 l-169 405 -159 3 -158 2 -11 -27z m245 -513 l69 -185 -74 -3
c-41 -2 -107 -2 -148 0 l-74 3 72 192 c39 105 74 189 78 185 4 -4 39 -91 77
-192z"/>
<path d="M3410 4391 l0 -611 301 0 c396 0 474 13 616 102 172 108 262 283 263
509 0 293 -181 524 -460 585 -57 12 -154 17 -397 21 l-323 6 0 -612z m660 310
c145 -55 221 -208 190 -382 -19 -103 -64 -174 -142 -223 -50 -32 -129 -46
-260 -46 l-128 0 0 335 0 335 145 0 c118 0 154 -4 195 -19z"/>
<path d="M4700 4395 l0 -605 160 0 160 0 0 605 0 605 -160 0 -160 0 0 -605z"/>
<path d="M6370 4390 l0 -610 435 0 435 0 0 135 0 135 -272 2 -273 3 -3 473 -2
472 -160 0 -160 0 0 -610z"/>
<path d="M7865 4986 c-7 -6 -32 -54 -54 -106 -134 -318 -445 -1068 -449 -1083
-4 -16 6 -17 158 -15 l162 3 18 45 c9 25 29 78 44 118 l28 72 244 0 244 0 11
-27 c5 -16 26 -70 45 -120 l36 -93 164 0 c90 0 164 4 164 8 0 4 -29 75 -64
157 -59 140 -149 355 -268 640 -146 350 -171 404 -189 410 -32 10 -279 2 -294
-9z m225 -517 c38 -101 70 -187 70 -191 0 -5 -66 -8 -146 -8 -113 0 -145 3
-141 13 2 6 35 94 72 194 38 101 70 182 72 180 1 -2 34 -86 73 -188z"/>
<path d="M8647 4985 c-96 -33 -133 -126 -86 -216 22 -44 80 -78 132 -79 41 0
105 36 127 73 25 41 26 118 3 159 -35 58 -111 86 -176 63z m113 -30 c43 -22
63 -68 58 -127 -11 -110 -139 -156 -217 -77 -55 54 -53 129 4 186 28 28 40 33
79 33 26 0 60 -7 76 -15z"/>
<path d="M8630 4846 c0 -70 3 -86 15 -86 9 0 15 9 15 25 0 20 5 25 25 25 17 0
29 -8 37 -25 6 -14 20 -25 30 -25 17 0 18 1 2 25 -15 24 -15 27 0 44 20 21 21
51 2 76 -9 13 -30 20 -70 23 l-56 4 0 -86z m99 40 c19 -23 2 -46 -35 -46 -31
0 -34 3 -34 30 0 26 3 30 29 30 16 0 34 -6 40 -14z"/>
<path d="M6360 3540 c0 -5 5 -10 11 -10 5 0 7 5 4 10 -3 6 -8 10 -11 10 -2 0
-4 -4 -4 -10z"/>
</g>
</svg>
