<?xml version="1.0" standalone="no"?>
<!DOCTYPE svg PUBLIC "-//W3C//DTD SVG 20010904//EN"
 "http://www.w3.org/TR/2001/REC-SVG-20010904/DTD/svg10.dtd">
<svg version="1.0" xmlns="http://www.w3.org/2000/svg"
 width="1080.000000pt" height="1080.000000pt" viewBox="0 0 1080.000000 1080.000000"
 preserveAspectRatio="xMidYMid meet">

<g transform="translate(0.000000,1080.000000) scale(0.100000,-0.100000)"
fill="#000000" stroke="none">
<path d="M0 10760 l0 -40 80 0 80 0 0 40 0 40 -80 0 -80 0 0 -40z"/>
<path d="M1280 10760 l0 -40 40 0 c36 0 40 -2 40 -25 0 -22 4 -25 40 -25 29 0
40 -4 40 -15 0 -12 16 -15 80 -15 l79 0 3 -77 3 -78 72 -3 72 -3 4 43 4 43 1
-42 2 -43 40 0 c36 0 40 -2 40 -25 0 -22 4 -25 40 -25 l40 0 0 -55 0 -54 78
-3 77 -3 5 -75 5 -75 75 -5 75 -5 3 -72 3 -73 30 0 c60 0 69 -13 69 -95 l0
-75 70 0 70 0 0 -40 c0 -23 5 -40 11 -40 7 0 10 -15 7 -38 -3 -36 -2 -38 24
-34 20 3 28 11 31 31 4 24 4 24 4 -4 1 -57 2 -58 16 -47 7 6 34 11 60 10 41 0
45 -2 30 -13 -9 -7 -23 -11 -30 -8 -16 6 -73 -16 -73 -28 0 -12 6 -11 41 7 17
8 33 14 35 11 5 -5 -103 -81 -128 -90 -10 -4 -18 -10 -18 -15 0 -4 -15 -14
-33 -21 -19 -8 -39 -22 -46 -33 -18 -29 -9 -31 20 -5 14 12 32 27 41 32 9 6
64 43 123 83 58 39 110 72 114 72 5 0 14 6 20 14 7 8 26 22 44 31 34 18 45 24
122 69 148 88 444 235 570 283 22 9 63 26 90 38 28 13 129 49 225 80 96 32
184 61 195 65 92 33 364 97 535 125 80 13 172 29 205 34 205 35 367 43 753 38
213 -3 421 -10 462 -16 41 -6 122 -18 180 -26 58 -9 134 -20 170 -26 111 -17
380 -79 500 -116 63 -19 131 -39 150 -45 73 -21 328 -115 345 -127 6 -4 33
-16 60 -26 96 -35 338 -150 460 -219 33 -18 87 -48 120 -67 33 -18 76 -44 95
-56 19 -13 42 -28 50 -33 36 -23 217 -145 236 -159 12 -9 32 -23 45 -31 12 -8
33 -25 46 -37 13 -13 26 -23 30 -23 10 0 140 -106 288 -234 92 -81 344 -332
425 -425 36 -41 70 -79 75 -85 86 -95 298 -382 392 -532 81 -129 110 -177 134
-219 15 -27 43 -79 63 -115 57 -103 196 -391 196 -405 0 -3 8 -25 19 -48 138
-308 279 -833 332 -1234 5 -40 14 -108 20 -150 6 -43 12 -258 14 -478 3 -369
2 -415 -20 -590 -28 -232 -50 -371 -76 -490 -11 -49 -22 -99 -23 -110 -1 -11
-5 -27 -9 -35 -3 -8 -13 -46 -22 -85 -33 -143 -159 -515 -216 -642 -10 -23
-19 -44 -19 -47 0 -24 -218 -455 -283 -561 -7 -10 -30 -49 -52 -85 -21 -36
-42 -67 -46 -70 -3 -3 -9 -14 -13 -26 -3 -11 -14 -29 -24 -40 -9 -10 -37 -49
-60 -86 -24 -37 -52 -77 -63 -89 -10 -12 -19 -25 -19 -28 0 -3 -10 -17 -23
-31 -12 -14 -42 -52 -67 -85 -25 -33 -49 -65 -55 -71 -5 -6 -21 -25 -35 -43
-13 -18 -33 -43 -45 -55 -11 -13 -51 -59 -89 -102 -183 -209 -553 -545 -741
-675 -27 -19 -52 -36 -55 -39 -20 -22 -330 -224 -450 -294 -167 -97 -687 -336
-731 -336 -8 0 -19 -4 -24 -9 -16 -14 -341 -117 -460 -146 -60 -14 -146 -35
-190 -45 -97 -23 -417 -75 -575 -92 -183 -20 -838 -17 -1020 5 -837 102 -1547
358 -2225 804 -88 58 -162 108 -165 112 -3 3 -27 22 -55 41 -27 19 -55 39 -61
45 -6 5 -26 21 -44 35 -200 150 -494 429 -684 650 -386 450 -700 977 -903
1515 -52 137 -134 393 -153 475 -7 30 -19 78 -26 105 -79 299 -131 707 -135
1060 -3 291 -1 487 5 506 2 8 7 52 11 99 3 47 11 120 16 162 6 42 9 83 6 90
-2 7 -8 -20 -12 -59 -7 -69 -19 -94 -27 -55 -3 14 -5 13 -10 -6 -3 -12 -3 -20
2 -17 15 9 18 -39 10 -130 l-8 -90 1 82 c1 44 -1 76 -5 70 -4 -7 -8 -47 -8
-89 0 -60 -3 -78 -14 -78 -14 0 -30 55 -21 70 3 4 -2 10 -10 14 -8 3 -15 15
-15 26 0 17 -6 20 -50 20 l-50 0 0 55 0 55 -120 0 -120 0 0 -3040 0 -3040
5400 0 5400 0 0 5400 0 5400 -4760 0 -4760 0 0 -40z m317 -92 c-2 -13 -4 -5
-4 17 -1 22 1 32 4 23 2 -10 2 -28 0 -40z m1950 -524 c-3 -3 -12 -4 -19 -1 -8
3 -5 6 6 6 11 1 17 -2 13 -5z m-487 -238 c0 -3 -4 -8 -10 -11 -5 -3 -10 -1
-10 4 0 6 5 11 10 11 6 0 10 -2 10 -4z m-140 -80 c0 -3 -4 -8 -10 -11 -5 -3
-10 -1 -10 4 0 6 5 11 10 11 6 0 10 -2 10 -4z m-2503 -4858 c-3 -7 -5 -2 -5
12 0 14 2 19 5 13 2 -7 2 -19 0 -25z"/>
<path d="M5120 10193 c-136 -8 -378 -35 -477 -52 -229 -41 -592 -126 -648
-151 -11 -5 -63 -23 -115 -41 -52 -17 -104 -35 -115 -39 -11 -5 -51 -21 -90
-36 -38 -14 -98 -39 -133 -55 -35 -16 -65 -29 -68 -29 -5 0 -215 -104 -324
-160 -36 -18 -66 -37 -68 -42 -2 -4 -9 -8 -14 -8 -6 0 -47 -22 -90 -50 -43
-27 -81 -50 -83 -50 -12 0 -90 -63 -88 -71 2 -4 -3 -6 -10 -4 -6 3 -23 -4 -37
-15 -20 -15 -21 -20 -8 -20 9 0 19 4 22 8 7 12 67 9 90 -4 14 -8 -2 -11 -64
-9 -80 1 -83 0 -119 -32 -40 -36 -35 -44 9 -13 15 11 30 17 34 13 3 -3 6 -1 6
5 0 7 6 12 13 12 20 0 57 -35 57 -54 0 -10 8 -16 24 -16 25 0 36 -16 36 -56 0
-13 5 -24 10 -24 6 0 10 -18 10 -40 0 -38 2 -40 30 -40 28 0 30 -3 30 -34 0
-19 5 -38 10 -41 6 -3 10 -24 10 -46 0 -35 2 -39 26 -39 l26 0 -7 -80 c-6 -69
-5 -80 8 -80 11 0 17 12 20 43 l4 42 1 -42 c2 -38 5 -43 26 -43 23 0 24 -4 31
-80 4 -44 11 -80 16 -80 5 0 9 -18 9 -40 0 -36 2 -40 26 -40 l26 0 -7 -76 c-6
-71 -6 -76 14 -81 19 -5 21 -13 21 -77 0 -70 1 -72 30 -83 29 -11 30 -13 31
-85 0 -40 0 -92 -1 -115 -1 -40 0 -43 24 -43 l26 0 -6 -112 c-4 -62 -10 -117
-15 -122 -17 -19 -9 -33 16 -29 13 3 23 8 22 12 -1 3 2 6 7 6 5 0 12 10 17 23
10 26 24 29 33 5 5 -11 0 -23 -11 -31 -13 -10 -14 -16 -6 -19 8 -3 11 -14 7
-29 -4 -15 -2 -24 5 -24 6 0 11 7 11 15 0 8 5 15 10 15 6 0 10 7 10 15 0 9 -6
12 -15 9 -8 -4 -15 -1 -15 5 0 6 10 11 23 11 33 0 28 -29 -12 -70 -19 -19 -32
-27 -28 -17 5 14 1 17 -26 16 -24 -1 -27 -3 -12 -7 11 -4 21 -13 22 -19 4 -17
-62 -84 -72 -75 -5 4 -5 -1 -2 -10 4 -12 1 -18 -7 -18 -8 0 -17 -7 -20 -16 -3
-8 -10 -13 -15 -10 -5 3 -20 1 -33 -4 -21 -10 -21 -10 5 -5 24 5 27 4 15 -9
-7 -7 -16 -12 -20 -9 -5 2 -8 -3 -8 -11 0 -9 -4 -16 -10 -16 -5 0 -10 -7 -10
-16 0 -11 -6 -13 -19 -9 -11 3 -22 1 -26 -4 -4 -7 1 -8 12 -4 16 6 16 5 4 -10
-8 -10 -16 -15 -19 -12 -5 4 -32 -40 -32 -53 0 -6 1195 1182 1298 1291 25 26
49 46 54 45 7 -3 652 -642 692 -687 l19 -21 -1419 -1415 c-780 -778 -1421
-1415 -1424 -1415 -3 0 -90 83 -193 185 -137 134 -192 183 -205 179 -13 -5
-14 -4 -3 4 11 8 6 17 -24 44 -21 18 -43 32 -48 30 -4 -1 -6 2 -2 8 9 15 -65
79 -84 73 -14 -4 -14 -3 -1 6 8 5 12 11 10 13 -3 2 -16 12 -29 23 l-23 20 6
-31 7 -31 -60 -2 c-55 -1 -61 1 -61 19 0 11 6 20 13 20 9 0 9 3 -1 9 -10 6 -6
11 17 19 18 6 29 7 26 2 -3 -5 -1 -11 4 -14 5 -4 12 -2 16 4 4 6 11 7 17 4 6
-4 8 -1 6 7 -3 8 -11 13 -17 11 -7 -1 -10 2 -6 8 3 5 -10 24 -29 40 l-35 31
-325 -1 -326 -1 0 41 0 41 -77 -3 -78 -3 -3 -83 c-4 -106 -22 -99 -22 9 l0 79
-30 0 c-28 0 -30 3 -30 38 0 20 -4 43 -9 51 -7 10 -9 8 -9 -10 0 -13 -6 -78
-13 -144 -19 -172 -17 -680 4 -850 9 -71 19 -161 22 -200 4 -38 11 -88 17
-110 5 -22 12 -51 13 -65 2 -14 11 -61 20 -105 9 -44 23 -109 30 -145 32 -163
171 -586 257 -780 70 -157 223 -466 239 -480 3 -3 20 -32 38 -65 19 -33 74
-121 124 -195 413 -618 968 -1138 1611 -1508 883 -507 1916 -706 2971 -572
155 20 179 24 375 66 259 56 581 157 805 254 66 28 141 61 166 71 45 20 157
77 301 153 89 48 266 156 329 202 26 19 49 34 53 34 3 0 14 6 23 14 10 8 72
55 138 103 166 124 292 229 414 347 234 228 319 320 465 506 37 47 73 92 79
100 7 8 28 38 47 65 19 28 37 52 40 55 6 5 79 111 95 139 74 121 90 146 97
149 4 2 8 7 8 12 0 5 19 41 43 82 38 64 168 323 225 448 89 195 233 632 267
807 8 39 21 100 29 135 27 116 45 222 56 338 6 63 16 133 21 155 5 22 12 177
15 345 5 238 2 344 -10 480 -22 239 -36 362 -43 380 -3 8 -6 18 -5 22 4 18
-82 400 -117 522 -69 237 -229 664 -253 674 -4 2 -8 10 -8 19 0 23 -163 331
-246 466 -77 124 -164 258 -175 267 -3 3 -21 27 -40 55 -18 27 -39 56 -46 65
-7 8 -42 53 -79 100 -36 47 -82 103 -103 125 -20 21 -51 57 -69 80 -74 88
-326 337 -442 435 -36 30 -67 57 -70 60 -3 3 -21 17 -42 32 -20 15 -42 34 -50
41 -39 38 -283 211 -398 282 -38 23 -97 60 -145 91 -62 39 -464 244 -480 244
-2 0 -34 13 -69 30 -82 37 -122 48 -111 30 5 -9 4 -11 -4 -6 -6 4 -9 11 -6 16
3 5 -5 12 -17 15 -13 4 -36 13 -53 20 -16 7 -73 27 -125 45 -52 17 -104 35
-115 40 -11 5 -76 23 -145 40 -69 17 -136 35 -150 40 -39 13 -385 78 -500 94
-192 27 -674 42 -890 29z m1947 -339 c-3 -3 -12 -4 -19 -1 -8 3 -5 6 6 6 11 1
17 -2 13 -5z m-4107 -374 c0 -5 -5 -10 -11 -10 -5 0 -7 5 -4 10 3 6 8 10 11
10 2 0 4 -4 4 -10z m-118 -72 c-7 -7 -12 -8 -12 -2 0 14 12 26 19 19 2 -3 -1
-11 -7 -17z m35 -10 c-3 -8 -6 -5 -6 6 -1 11 2 17 5 13 3 -3 4 -12 1 -19z
m4941 -2144 c760 -759 1382 -1384 1382 -1390 0 -13 -686 -699 -699 -699 -11 0
-2841 2816 -2841 2827 0 5 158 167 351 359 l350 350 37 -34 c20 -18 659 -654
1420 -1413z m-4197 656 c-3 -3 -9 -9 -12 -13 -4 -4 -6 3 -6 17 0 19 2 22 12
13 7 -7 10 -14 6 -17z m-53 -50 c-7 -11 -15 -15 -17 -9 -2 6 3 15 10 20 20 12
21 11 7 -11z m-81 -36 c-3 -3 -12 -4 -19 -1 -8 3 -5 6 6 6 11 1 17 -2 13 -5z
m-28 -21 c0 -5 -4 -17 -9 -28 -8 -18 -9 -17 -9 8 -1 15 4 27 9 27 6 0 10 -3 9
-7z m31 -17 c0 -3 -4 -8 -10 -11 -5 -3 -10 -1 -10 4 0 6 5 11 10 11 6 0 10 -2
10 -4z m3164 -1454 c684 -683 1240 -1244 1236 -1247 -9 -5 -4981 -7 -4986 -2
-3 3 346 353 2161 2166 182 181 334 329 338 328 4 -1 567 -561 1251 -1245z
m-2646 -117 c-3 -3 -9 2 -12 12 -6 14 -5 15 5 6 7 -7 10 -15 7 -18z m-828
-255 c0 -5 -4 -10 -10 -10 -5 0 -10 5 -10 10 0 6 5 10 10 10 6 0 10 -4 10 -10z
m-2468 -132 c2 -38 0 -68 -4 -68 -4 0 -7 37 -7 83 1 92 6 86 11 -15z m914 -23
c18 -44 18 -45 -5 -45 -15 0 -18 8 -18 40 0 22 2 40 4 40 2 0 11 -16 19 -35z
m1368 -59 c-9 -23 -32 -26 -37 -5 -4 15 0 19 19 19 16 0 22 -4 18 -14z m-2277
-83 c-2 -16 -4 -5 -4 22 0 28 2 40 4 28 2 -13 2 -35 0 -50z m2143 -12 c0 -6
-4 -13 -10 -16 -5 -3 -10 1 -10 9 0 9 5 16 10 16 6 0 10 -4 10 -9z m-1073 -35
c0 -8 -6 -12 -14 -9 -7 3 -13 9 -13 14 0 5 6 9 13 9 8 0 14 -6 14 -14z m-1090
-73 c-2 -16 -4 -3 -4 27 0 30 2 43 4 28 2 -16 2 -40 0 -55z m20 25 c-3 -7 -5
-2 -5 12 0 14 2 19 5 13 2 -7 2 -19 0 -25z m1144 0 c11 -21 11 -22 -4 -9 -10
7 -17 17 -17 22 0 15 9 10 21 -13z m-51 -8 c-12 -22 -25 -26 -35 -10 -9 15 4
30 26 30 17 0 18 -3 9 -20z m890 -70 c0 -5 -4 -10 -10 -10 -5 0 -10 5 -10 10
0 6 5 10 10 10 6 0 10 -4 10 -10z m-80 -69 c-10 -20 -30 -37 -30 -26 0 11 25
45 33 45 4 0 3 -9 -3 -19z m36 3 c-9 -8 -16 -23 -17 -32 0 -10 -3 -12 -5 -5
-7 15 13 53 27 53 6 0 3 -7 -5 -16z m-621 -24 c3 -5 2 -10 -4 -10 -5 0 -13 5
-16 10 -3 6 -2 10 4 10 5 0 13 -4 16 -10z m585 -30 c0 -5 -5 -10 -11 -10 -5 0
-7 5 -4 10 3 6 8 10 11 10 2 0 4 -4 4 -10z m515 -20 c-3 -5 -14 -10 -23 -9
-14 0 -13 2 3 9 27 11 27 11 20 0z m-860 -190 c3 -5 1 -10 -4 -10 -6 0 -11 5
-11 10 0 6 2 10 4 10 3 0 8 -4 11 -10z m42 -26 c-3 -3 -12 -4 -19 -1 -8 3 -5
6 6 6 11 1 17 -2 13 -5z m4543 -1801 c-793 -791 -1448 -1438 -1455 -1438 -11
0 -2821 2787 -2894 2870 -2 3 1300 5 2894 5 l2897 0 -1442 -1437z"/>
<path d="M2245 9350 c-3 -6 1 -7 9 -4 18 7 21 14 7 14 -6 0 -13 -4 -16 -10z"/>
<path d="M2699 9293 c-13 -16 -12 -17 4 -4 9 7 17 15 17 17 0 8 -8 3 -21 -13z"/>
<path d="M2613 9288 c-13 -6 -23 -18 -23 -27 1 -14 2 -14 13 -1 7 8 19 21 27
28 17 14 13 14 -17 0z"/>
<path d="M2529 9219 c-23 -19 -23 -20 -2 -10 12 6 25 16 28 21 10 16 -1 12
-26 -11z"/>
<path d="M2459 9163 c-13 -16 -12 -17 4 -4 9 7 17 15 17 17 0 8 -8 3 -21 -13z"/>
<path d="M970 7799 c0 -5 5 -7 10 -4 6 3 10 8 10 11 0 2 -4 4 -10 4 -5 0 -10
-5 -10 -11z"/>
<path d="M3313 7653 c-7 -3 -13 -11 -13 -18 0 -8 -8 -22 -17 -31 -17 -17 -17
-18 0 -11 10 4 21 7 23 7 2 0 4 6 4 14 0 8 5 16 12 18 6 2 9 9 7 15 -2 5 -10
8 -16 6z"/>
<path d="M3145 7479 c-11 -17 1 -21 15 -4 8 9 8 15 2 15 -6 0 -14 -5 -17 -11z"/>
<path d="M3055 7341 c-3 -6 -11 -8 -17 -5 -6 4 -9 1 -6 -7 3 -8 -2 -19 -11
-26 -9 -7 -13 -13 -9 -13 12 0 62 50 56 56 -3 3 -9 0 -13 -5z"/>
<path d="M2960 7249 c0 -5 5 -7 10 -4 6 3 10 8 10 11 0 2 -4 4 -10 4 -5 0 -10
-5 -10 -11z"/>
<path d="M2930 7215 c0 -8 2 -15 4 -15 2 0 6 7 10 15 3 8 1 15 -4 15 -6 0 -10
-7 -10 -15z"/>
<path d="M2894 7178 l-19 -23 23 19 c21 18 27 26 19 26 -2 0 -12 -10 -23 -22z"/>
<path d="M2814 7098 l-19 -23 23 19 c21 18 27 26 19 26 -2 0 -12 -10 -23 -22z"/>
<path d="M2734 7018 l-19 -23 23 19 c21 18 27 26 19 26 -2 0 -12 -10 -23 -22z"/>
<path d="M2654 6938 l-19 -23 23 19 c21 18 27 26 19 26 -2 0 -12 -10 -23 -22z"/>
<path d="M2574 6858 l-19 -23 23 19 c21 18 27 26 19 26 -2 0 -12 -10 -23 -22z"/>
<path d="M2494 6778 l-19 -23 23 19 c21 18 27 26 19 26 -2 0 -12 -10 -23 -22z"/>
<path d="M2414 6698 l-19 -23 23 19 c12 11 22 21 22 23 0 8 -8 2 -26 -19z"/>
<path d="M2323 6610 c-18 -16 -33 -35 -33 -41 0 -6 5 -5 13 3 68 75 75 88 20
38z"/>
<path d="M521 6564 c0 -11 3 -14 6 -6 3 7 2 16 -1 19 -3 4 -6 -2 -5 -13z"/>
<path d="M504 6506 c-3 -8 -4 -23 -2 -33 3 -11 6 -6 9 15 6 34 2 42 -7 18z"/>
<path d="M2174 6458 l-19 -23 23 19 c21 18 27 26 19 26 -2 0 -12 -10 -23 -22z"/>
<path d="M481 6364 c0 -11 3 -14 6 -6 3 7 2 16 -1 19 -3 4 -6 -2 -5 -13z"/>
<path d="M752 6315 c0 -16 2 -22 5 -12 2 9 2 23 0 30 -3 6 -5 -1 -5 -18z"/>
<path d="M2014 6298 l-19 -23 23 19 c21 18 27 26 19 26 -2 0 -12 -10 -23 -22z"/>
<path d="M736 6255 c-3 -8 -1 -15 4 -15 6 0 10 7 10 15 0 8 -2 15 -4 15 -2 0
-6 -7 -10 -15z"/>
<path d="M432 6220 c0 -14 2 -19 5 -12 2 6 2 18 0 25 -3 6 -5 1 -5 -13z"/>
<path d="M1940 6225 c-7 -8 -16 -12 -21 -9 -5 3 -9 0 -9 -5 0 -17 15 -13 35 9
10 11 16 20 13 20 -3 0 -11 -7 -18 -15z"/>
<path d="M1880 6170 c-6 -11 -15 -20 -21 -20 -6 0 -7 6 -3 13 4 6 3 9 -1 4 -5
-4 -9 -16 -10 -27 -1 -18 0 -17 26 3 15 12 28 28 28 35 1 18 -7 15 -19 -8z"/>
<path d="M713 6080 c0 -25 2 -35 4 -22 2 12 2 32 0 45 -2 12 -4 2 -4 -23z"/>
<path d="M1785 6081 c6 -11 4 -13 -8 -8 -12 4 -14 2 -10 -10 4 -10 2 -14 -3
-10 -6 3 -18 -8 -28 -24 -14 -24 -20 -28 -32 -18 -10 8 -14 8 -14 0 0 -6 5
-11 10 -11 6 0 -6 -18 -27 -41 -35 -38 -38 -39 -51 -22 -13 17 -13 17 -11 -2
2 -11 0 -26 -5 -33 -24 -38 11 -12 95 73 93 93 98 100 83 113 -4 4 -3 1 1 -7z"/>
<path d="M1635 5970 c-3 -5 -1 -10 4 -10 6 0 11 5 11 10 0 6 -2 10 -4 10 -3 0
-8 -4 -11 -10z"/>
</g>
</svg>
